<svg xmlns="http://www.w3.org/2000/svg" width="28" height="22" fill="none" viewBox="0 0 28 22"><path fill="#666" fill-rule="evenodd" d="M23.4608 3.153a.6565.6565 0 0 1 .2264.6115l-2.6261 15.7569a.6564.6564 0 0 1-1.0118.4383l-7.8785-5.2523a.6566.6566 0 0 1-.1485-.9564l2.6107-3.2633-4.36 2.9067a.6566.6566 0 0 1-.6578.0409L4.363 10.8092a.6566.6566 0 0 1 .0728-1.2056l18.3831-6.5653a.6566.6566 0 0 1 .642.1146ZM6.3263 10.3227l3.5354 1.7677 7.5614-5.041a.6565.6565 0 0 1 .8769.9564l-4.805 6.0062 6.4378 4.2918 2.2755-13.6533-15.882 5.6722Z" clip-rule="evenodd"/></svg>