<svg xmlns="http://www.w3.org/2000/svg" width="33" height="38" fill="none" viewBox="0 0 33 38"><g clip-path="url(#a)"><path fill="#FDC305" d="M6.0117 20.9349v-2.2835a139.13504 139.13504 0 0 1 19.9763-1.3438c0 .6063 0 1.2226-.0594 1.8389 1.8991-.8598 3.895-1.4774 5.9423-1.8389-1.3048-3.4433-3.6825-6.354-6.7672-8.28413-3.0848-1.93015-6.7057-2.77292-10.3058-2.39865-3.6001.37428-6.97992 1.94485-9.61959 4.47018C2.53863 13.6202.78535 16.9603.18818 20.6014l5.82352.3335ZM26.9784 24.4813c-1.1489 1.2932-1.3767 1.2124-1.3767 3.4857v9.2752c2.2706-1.5297 4.1345-3.6091 5.4254-6.0527 1.291-2.4435 1.9688-5.1752 1.9729-7.951-.0131-1.0516-.1191-2.1-.3169-3.1321-2.0519 1.2422-3.9648 2.7092-5.7047 4.3749ZM6.29892 25.9867s-3.7536-1.4549-5.14016-1.849A8.32953 8.32953 0 0 0 0 23.8548c.10735 2.9159.95632 5.7532 2.4635 8.2331 1.50718 2.48 3.62076 4.5174 6.13314 5.9121L6.29892 25.9867Z"/><path fill="#F06351" d="M26.0375 17.2975c.0403-5.5786-.4239-11.1491-1.3865-16.64074 0 0-.1387-1.30338-.8815-.2425-.5834 1.26109-.9838 2.60211-1.1885 3.98087a68.29505 68.29505 0 0 0-12.64733.34352C9.15126 2.02076 7.77461.75779 7.11104 1.01039c-.66356.25259-.71308 3.34432-.71308 3.34432L6.07113 18.6009c6.61707-.9133 13.28917-1.3489 19.96637-1.3034Z"/><path fill="#000" d="M12.2908 14.1452c0-.091.9904.687 1.3965.9295.406.2425.6041.4244.6041.5961 0 .1718-.2674.3436-.6239.3436-.3566 0-.9013-.1213-.9904-.2728h1.2182c-.6035-.4553-1.1432-.9924-1.6045-1.5964ZM19.699 14.2563l-1.0796 1.3438c0 .0606-.1683.3536.1783.3031a7.16147 7.16147 0 0 0 1.2083-.293c.1089 0 .0693-.192-.1089-.1718-.1783.0203-.6834.0506-.9904.1112l.8319-1.2731s.0693-.1313-.0396-.0202ZM16.5891 20.4095c.4591-.2064.8386-.5615 1.0796-1.0104.2773-.6567 0-.9194-.4358-1.0104-.5963-.111-1.2118.0117-1.7233.3436-.3863.3637-.3367.7274-.0495 1.0103.3479.269.7271.493 1.129.6669Z"/><path fill="#F06351" d="M16.193 21.6724c-.111.2309-.2659.437-.4556.6062-.2821.2316-.6288.366-.9904.384-.5211.0424-1.0393-.1122-1.4559-.4345-.1958-.1204-.3728-.2703-.5249-.4445-.0995-.1121-.221-.2016-.3565-.2627 0 0 .7428 4.1425 2.5453 4.7992 1.8025.6568 2.1194-.7578 2.1789-1.1417.0595-1.1466-.2237-2.2847-.8122-3.2635-.0198-.3132-.0297-.1111-.1287-.2425Z"/><path fill="#000" d="M14.5687 22.8242c-.4602-.0659-.9023-.2272-1.2992-.4739-.3968-.2468-.74-.5737-1.0084-.9608a.14173.14173 0 0 1-.0308-.0462.14505.14505 0 0 1-.0108-.0548c0-.0188.0037-.0375.0108-.0548a.14215.14215 0 0 1 .0308-.0463.13918.13918 0 0 1 .0453-.0314.13615.13615 0 0 1 .0537-.011c.0185 0 .0368.0037.0538.011.017.0073.0324.018.0453.0314.4999.7015 1.2508 1.1734 2.0897 1.3135.3285-.0252.6463-.13.9271-.3057.2808-.1758.5164-.4173.6873-.7046l.1386-.192.0991.2122s.3664.7678.9904.8083c.6239.0404 1.0399-.4143 1.5945-1.2933a.13767.13767 0 0 1 .099-.0425c.0185 0 .0367.0038.0537.0111a.13704.13704 0 0 1 .0454.0314c.032.0208.0549.0534.0642.091a.15447.15447 0 0 1-.0147.1111c-.6339 1.0103-1.2578 1.4549-1.862 1.4145-.2297-.0341-.4489-.1209-.6411-.2539-.1921-.133-.3522-.3088-.4681-.514-.1948.2773-.4481.5066-.7411.671-.2931.1643-.6186.2596-.9525.2787Z"/><path fill="#F06351" d="M25.988 19.1162c-1.7783 1.6405-3.4553 3.3918-5.0213 5.2438-1.5563 1.8451-3.3141 3.5027-5.2392 4.9407-.2179-.5355-1.6044-1.5256-1.6044-1.5256s-3.1-2.1622-5.1303-3.8597c-1.09524-.9423-2.13064-1.9547-3.09994-3.0311l-1.98079-.1111c2.86242 4.2492 7.05183 7.3833 11.88473 8.8913.8518-.1415 3.2386-1.8793 5.0213-3.2939 2.0986-1.8369 4.0646-3.8258 5.883-5.951.4977-.5951.8807-1.2807 1.129-2.0208-1.0894.3941-1.8421.7174-1.8421.7174Z"/></g><defs><clipPath id="a"><path fill="#fff" d="M0 0h33v38H0z"/></clipPath></defs></svg>